<svg width="40" height="24" viewBox="0 0 40 24" fill="none" xmlns="http://www.w3.org/2000/svg">
<path fill-rule="evenodd" clip-rule="evenodd" d="M27.1517 0.489609C27.3065 0.334409 27.4904 0.211275 27.6929 0.12726C27.8954 0.0432447 28.1124 0 28.3316 0C28.5508 0 28.7679 0.0432447 28.9704 0.12726C29.1728 0.211275 29.3567 0.334409 29.5115 0.489609L39.5108 10.4889C39.666 10.6437 39.7891 10.8276 39.8731 11.03C39.9572 11.2325 40.0004 11.4496 40.0004 11.6688C40.0004 11.888 39.9572 12.105 39.8731 12.3075C39.7891 12.51 39.666 12.6939 39.5108 12.8487L29.5115 22.8479C29.1986 23.1609 28.7742 23.3367 28.3316 23.3367C27.8891 23.3367 27.4647 23.1609 27.1517 22.8479C26.8388 22.535 26.663 22.1106 26.663 21.668C26.663 21.2255 26.8388 20.8011 27.1517 20.4881L35.9744 11.6688L27.1517 2.84943C26.9965 2.69463 26.8734 2.51072 26.7894 2.30825C26.7054 2.10578 26.6621 1.88873 26.6621 1.66952C26.6621 1.45031 26.7054 1.23326 26.7894 1.03079C26.8734 0.828321 26.9965 0.644416 27.1517 0.489609Z" fill="#0F0F0F"/>
<path fill-rule="evenodd" clip-rule="evenodd" d="M0 11.6689C0 11.2269 0.175582 10.803 0.488119 10.4904C0.800657 10.1779 1.22455 10.0023 1.66654 10.0023H36.6639C37.1059 10.0023 37.5298 10.1779 37.8424 10.4904C38.1549 10.803 38.3305 11.2269 38.3305 11.6689C38.3305 12.1109 38.1549 12.5347 37.8424 12.8473C37.5298 13.1598 37.1059 13.3354 36.6639 13.3354H1.66654C1.22455 13.3354 0.800657 13.1598 0.488119 12.8473C0.175582 12.5347 0 12.1109 0 11.6689Z" fill="#0F0F0F"/>
</svg>
